<svg width="41" height="41" fill="none" xmlns="http://www.w3.org/2000/svg"><path fill-rule="evenodd" clip-rule="evenodd" d="M0 20.5C0 9.178 9.178 0 20.5 0S41 9.178 41 20.5 31.822 41 20.5 41 0 31.822 0 20.5zm5.52-5.753a16.096 16.096 0 019.227-9.23l2.268 5.389a10.25 10.25 0 00-6.109 6.088l-5.387-2.247zm9.21 20.727a16.093 16.093 0 01-9.21-9.22l5.386-2.228a10.183 10.183 0 006.088 6.068l-2.264 5.38zm20.744-9.204a16.093 16.093 0 01-9.202 9.204l-2.225-5.38a10.204 10.204 0 006.047-6.088l5.38 2.264zM26.28 5.527a16.096 16.096 0 019.194 9.201l-5.38 2.225a10.213 10.213 0 00-6.047-6.026l2.233-5.4zM14.35 20.5a6.142 6.142 0 006.15 6.15 6.142 6.142 0 006.15-6.15 6.142 6.142 0 00-6.15-6.15 6.142 6.142 0 00-6.15 6.15z" fill="#fff"/></svg>