<svg width="25" height="20" fill="none" xmlns="http://www.w3.org/2000/svg"><path d="M24.618 2.376c-.905.39-1.89.671-2.905.78a5.032 5.032 0 002.219-2.78 9.96 9.96 0 01-3.201 1.219A5.033 5.033 0 0017.044 0 5.044 5.044 0 0012 5.047c0 .39.047.781.124 1.157A14.337 14.337 0 011.722.924a5.01 5.01 0 00-.686 2.546 5.05 5.05 0 002.248 4.205 5.089 5.089 0 01-2.281-.642v.062a5.046 5.046 0 004.044 4.952 5.34 5.34 0 01-1.328.172 6.77 6.77 0 01-.953-.077c.64 2 2.5 3.453 4.716 3.5a10.111 10.111 0 01-6.263 2.157c-.423 0-.814-.015-1.219-.062A14.286 14.286 0 007.749 20c9.278 0 14.355-7.686 14.355-14.358 0-.219 0-.438-.015-.657a10.865 10.865 0 002.53-2.61z" fill="#272D4E"/></svg>